# Exported from ProBuilder
# http://www.procore3d.com/probuilder
# 1/24/2018 1:35:47 PM

mtllib ./Bumper_Collider.mtl
o Bumper_Collider

g Polygonal_Geometry
v -1.266532 0 0.7366
v -0.7366 0 1.266532
v 1.241132 0 0.7366
v -1.266532 0 -0.7112
v 1.241132 0 -0.7112
v -0.7366 0 -1.241132
v 0.3904144 1.409293 0.01518184
v -0.03055974 1.409293 0.4361562
v -0.2410468 1.409293 0.3797563
v 0.3904144 1.409293 0.01518184
v -0.2410468 1.409293 0.3797563
v -0.3951342 1.409293 0.225669
v 0.3340146 1.409293 -0.1953053
v -0.451534 1.409293 0.01518184
v -0.3951342 1.409293 -0.1953053
v 0.3340146 1.409293 -0.1953053
v -0.3951342 1.409293 -0.1953053
v -0.2410469 1.409293 -0.3493926
v 1.241132 0 0.7366
v -0.0127 0 1.4605
v 0.7112 0 1.266532
v -0.7366 0 1.266532
v -0.0127 0 1.4605
v 1.241132 0 0.7366
v -1.266532 0 0.7366
v 1.241132 0 0.7366
v -1.4605 0 0.0127
v -1.4605 0 0.0127
v 1.241132 0 0.7366
v 1.4351 0 0.0127
v -1.4605 0 0.0127
v 1.4351 0 0.0127
v 1.241132 0 -0.7112
v -1.266532 0 -0.7112
v -1.4605 0 0.0127
v 1.241132 0 -0.7112
v -0.7366 0 -1.241132
v 1.241132 0 -0.7112
v 0.7112 0 -1.241132
v -0.7366 0 -1.241132
v 0.7112 0 -1.241132
v -0.0127 0 -1.4351
v 1.241132 0 -0.7112
v 1.4351 0 0.0127
v 1.4351 0.7900599 0.0127
v 1.241132 0.7900599 -0.7112
v 1.241132 0 -0.7112
v 1.4351 0.7900599 0.0127
v 0.7112 0 -1.241132
v 1.241132 0 -0.7112
v 1.241132 0.7900599 -0.7112
v 0.7112 0.7900599 -1.241132
v 0.7112 0 -1.241132
v 1.241132 0.7900599 -0.7112
v -0.0127 0 -1.4351
v 0.7112 0 -1.241132
v 0.7112 0.7900599 -1.241132
v -0.0127 0.7900599 -1.4351
v -0.0127 0 -1.4351
v 0.7112 0.7900599 -1.241132
v -0.7366 0.7900599 -1.241132
v -0.0127 0 -1.4351
v -0.0127 0.7900599 -1.4351
v -0.7366 0.7900599 -1.241132
v -0.7366 0 -1.241132
v -0.0127 0 -1.4351
v -1.266532 0.7900599 -0.7112
v -0.7366 0 -1.241132
v -0.7366 0.7900599 -1.241132
v -1.266532 0.7900599 -0.7112
v -1.266532 0 -0.7112
v -0.7366 0 -1.241132
v -1.4605 0.7900599 0.0127
v -1.266532 0 -0.7112
v -1.266532 0.7900599 -0.7112
v -1.4605 0.7900599 0.0127
v -1.4605 0 0.0127
v -1.266532 0 -0.7112
v -1.266532 0.7900599 0.7366
v -1.4605 0 0.0127
v -1.4605 0.7900599 0.0127
v -1.266532 0.7900599 0.7366
v -1.266532 0 0.7366
v -1.4605 0 0.0127
v -0.7366 0.7900599 1.266532
v -1.266532 0 0.7366
v -1.266532 0.7900599 0.7366
v -0.7366 0.7900599 1.266532
v -0.7366 0 1.266532
v -1.266532 0 0.7366
v -0.0127 0.7900599 1.4605
v -0.7366 0 1.266532
v -0.7366 0.7900599 1.266532
v -0.0127 0.7900599 1.4605
v -0.0127 0 1.4605
v -0.7366 0 1.266532
v 0.7112 0 1.266532
v -0.0127 0 1.4605
v -0.0127 0.7900599 1.4605
v 0.7112 0.7900599 1.266532
v 0.7112 0 1.266532
v -0.0127 0.7900599 1.4605
v 1.241132 0 0.7366
v 0.7112 0 1.266532
v 0.7112 0.7900599 1.266532
v 1.241132 0.7900599 0.7366
v 1.241132 0 0.7366
v 0.7112 0.7900599 1.266532
v 1.4351 0 0.0127
v 1.241132 0 0.7366
v 1.241132 0.7900599 0.7366
v 1.4351 0.7900599 0.0127
v 1.4351 0 0.0127
v 1.241132 0.7900599 0.7366
v 1.4351 0.7900599 0.0127
v 1.241132 0.7900599 0.7366
v 0.3340146 1.409293 0.225669
v 0.3904144 1.409293 0.01518184
v 1.4351 0.7900599 0.0127
v 0.3340146 1.409293 0.225669
v 0.3340146 1.409293 0.225669
v -0.03055974 1.409293 0.4361562
v 0.3904144 1.409293 0.01518184
v 0.1799274 1.409293 0.3797563
v -0.03055974 1.409293 0.4361562
v 0.3340146 1.409293 0.225669
v 1.241132 0.7900599 0.7366
v 0.7112 0.7900599 1.266532
v 0.1799274 1.409293 0.3797563
v 0.3340146 1.409293 0.225669
v 1.241132 0.7900599 0.7366
v 0.1799274 1.409293 0.3797563
v 0.1799274 1.409293 0.3797563
v -0.0127 0.7900599 1.4605
v -0.03055974 1.409293 0.4361562
v 0.7112 0.7900599 1.266532
v -0.0127 0.7900599 1.4605
v 0.1799274 1.409293 0.3797563
v -0.2410468 1.409293 0.3797563
v -0.0127 0.7900599 1.4605
v -0.7366 0.7900599 1.266532
v -0.03055974 1.409293 0.4361562
v -0.0127 0.7900599 1.4605
v -0.2410468 1.409293 0.3797563
v -0.2410468 1.409293 0.3797563
v -0.7366 0.7900599 1.266532
v -0.3951342 1.409293 0.225669
v -0.3951342 1.409293 0.225669
v -0.7366 0.7900599 1.266532
v -1.266532 0.7900599 0.7366
v 0.3904144 1.409293 0.01518184
v -0.3951342 1.409293 0.225669
v 0.3340146 1.409293 -0.1953053
v 0.3340146 1.409293 -0.1953053
v -0.3951342 1.409293 0.225669
v -0.451534 1.409293 0.01518184
v 0.3340146 1.409293 -0.1953053
v 1.4351 0.7900599 0.0127
v 0.3904144 1.409293 0.01518184
v 1.241132 0.7900599 -0.7112
v 1.4351 0.7900599 0.0127
v 0.3340146 1.409293 -0.1953053
v -0.03055974 1.409293 -0.4057924
v 0.3340146 1.409293 -0.1953053
v -0.2410469 1.409293 -0.3493926
v 0.1799274 1.409293 -0.3493926
v 0.3340146 1.409293 -0.1953053
v -0.03055974 1.409293 -0.4057924
v 0.1799274 1.409293 -0.3493926
v 0.7112 0.7900599 -1.241132
v 0.3340146 1.409293 -0.1953053
v 0.7112 0.7900599 -1.241132
v 1.241132 0.7900599 -0.7112
v 0.3340146 1.409293 -0.1953053
v -0.3951342 1.409293 0.225669
v -1.4605 0.7900599 0.0127
v -0.451534 1.409293 0.01518184
v -0.3951342 1.409293 0.225669
v -1.266532 0.7900599 0.7366
v -1.4605 0.7900599 0.0127
v -0.451534 1.409293 0.01518184
v -1.4605 0.7900599 0.0127
v -0.3951342 1.409293 -0.1953053
v -0.3951342 1.409293 -0.1953053
v -1.4605 0.7900599 0.0127
v -1.266532 0.7900599 -0.7112
v -0.3951342 1.409293 -0.1953053
v -0.7366 0.7900599 -1.241132
v -0.2410469 1.409293 -0.3493926
v -0.3951342 1.409293 -0.1953053
v -1.266532 0.7900599 -0.7112
v -0.7366 0.7900599 -1.241132
v -0.2410469 1.409293 -0.3493926
v -0.0127 0.7900599 -1.4351
v -0.03055974 1.409293 -0.4057924
v -0.2410469 1.409293 -0.3493926
v -0.7366 0.7900599 -1.241132
v -0.0127 0.7900599 -1.4351
v -0.0127 0.7900599 -1.4351
v 0.7112 0.7900599 -1.241132
v 0.1799274 1.409293 -0.3493926
v -0.03055974 1.409293 -0.4057924
v -0.0127 0.7900599 -1.4351
v 0.1799274 1.409293 -0.3493926

vn 0 -1 0
vn 0 -1 0
vn 0 -1 0
vn 0 -1 0
vn 0 -1 0
vn 0 -1 0
vn 0.1684022 0.9507717 2.085914E-05
vn -0.0002304837 0.9238359 0.2562199
vn -0.1290465 0.9228265 0.2231443
vn 0.1684022 0.9507717 2.085914E-05
vn -0.1290465 0.9228265 0.2231443
vn -0.2241679 0.9221566 0.1293207
vn 0.1459291 0.9506857 -0.08431811
vn -0.2590057 0.9220185 3.258511E-05
vn -0.2238044 0.9224529 -0.1290462
vn 0.1459291 0.9506857 -0.08431811
vn -0.2238044 0.9224529 -0.1290462
vn -0.1286847 0.9233333 -0.2224551
vn 0 -1 0
vn 0 -1 0
vn 0 -1 0
vn 0 -1 0
vn 0 -1 0
vn 0 -1 0
vn 0 -1 0
vn 0 -1 0
vn 0 -1 0
vn 0 -1 0
vn 0 -1 0
vn 0 -1 0
vn 0 -1 0
vn 0 -1 0
vn 0 -1 0
vn 0 -1 0
vn 0 -1 0
vn 0 -1 0
vn 0 -1 0
vn 0 -1 0
vn 0 -1 0
vn 0 -1 0
vn 0 -1 0
vn 0 -1 0
vn 0.8365163 0 -0.4829629
vn 0.9659258 0 1.490116E-08
vn 0.7355662 0.4261576 3.131106E-05
vn 0.6371518 0.4260286 -0.3679586
vn 0.8365163 0 -0.4829629
vn 0.7355662 0.4261576 3.131106E-05
vn 0.4829629 0 -0.8365163
vn 0.8365163 0 -0.4829629
vn 0.6371518 0.4260286 -0.3679586
vn 0.368225 0.4253939 -0.638146
vn 0.4829629 0 -0.8365163
vn 0.6371518 0.4260286 -0.3679586
vn -1.490116E-08 0 -0.9659258
vn 0.4829629 0 -0.8365163
vn 0.368225 0.4253939 -0.638146
vn -0.0002291799 0.4244109 -0.7382932
vn -1.490116E-08 0 -0.9659258
vn 0.368225 0.4253939 -0.638146
vn -0.3701662 0.4233333 -0.6407133
vn -1.490116E-08 0 -0.9659258
vn -0.0002291799 0.4244109 -0.7382932
vn -0.3701662 0.4233333 -0.6407133
vn -0.4829629 0 -0.8365163
vn -1.490116E-08 0 -0.9659258
vn -0.6420625 0.4224529 -0.3705277
vn -0.4829629 0 -0.8365163
vn -0.3701662 0.4233333 -0.6407133
vn -0.6420625 0.4224529 -0.3705277
vn -0.8365163 0 -0.4829629
vn -0.4829629 0 -0.8365163
vn -0.7419686 0.4220185 3.259256E-05
vn -0.8365163 0 -0.4829629
vn -0.6420625 0.4224529 -0.3705277
vn -0.7419686 0.4220185 3.259256E-05
vn -0.9659258 0 1.490116E-08
vn -0.8365163 0 -0.4829629
vn -0.642426 0.4221565 0.3708022
vn -0.9659258 0 1.490116E-08
vn -0.7419686 0.4220185 3.259256E-05
vn -0.642426 0.4221565 0.3708022
vn -0.8365163 0 0.4829629
vn -0.9659258 0 1.490116E-08
vn -0.3705279 0.4228266 0.6414024
vn -0.8365163 0 0.4829629
vn -0.642426 0.4221565 0.3708022
vn -0.3705279 0.4228266 0.6414024
vn -0.4829629 0 0.8365163
vn -0.8365163 0 0.4829629
vn -0.0002304837 0.4238359 0.7391828
vn -0.4829629 0 0.8365163
vn -0.3705279 0.4228266 0.6414024
vn -0.0002304837 0.4238359 0.7391828
vn -1.490116E-08 0 0.9659258
vn -0.4829629 0 0.8365163
vn 0.4829629 0 0.8365163
vn -1.490116E-08 0 0.9659258
vn -0.0002304837 0.4238359 0.7391828
vn 0.3685785 0.4249045 0.6388233
vn 0.4829629 0 0.8365163
vn -0.0002304837 0.4238359 0.7391828
vn 0.8365163 0 0.4829629
vn 0.4829629 0 0.8365163
vn 0.3685785 0.4249045 0.6388233
vn 0.6375036 0.4257496 0.3682248
vn 0.8365163 0 0.4829629
vn 0.3685785 0.4249045 0.6388233
vn 0.9659258 0 1.490116E-08
vn 0.8365163 0 0.4829629
vn 0.6375036 0.4257496 0.3682248
vn 0.7355662 0.4261576 3.131106E-05
vn 0.9659258 0 1.490116E-08
vn 0.6375036 0.4257496 0.3682248
vn 0.7355662 0.4261576 3.131106E-05
vn 0.6375036 0.4257496 0.3682248
vn 0.2923271 0.9009995 0.1689911
vn 0.1684022 0.9507717 2.085914E-05
vn 0.7355662 0.4261576 3.131106E-05
vn 0.2923271 0.9009995 0.1689911
vn 0.2923271 0.9009995 0.1689911
vn -0.0002304837 0.9238359 0.2562199
vn 0.1684022 0.9507717 2.085914E-05
vn 0.1694627 0.8998726 0.2940869
vn -0.0002304837 0.9238359 0.2562199
vn 0.2923271 0.9009995 0.1689911
vn 0.6375036 0.4257496 0.3682248
vn 0.3685785 0.4249045 0.6388233
vn 0.1694627 0.8998726 0.2940869
vn 0.2923271 0.9009995 0.1689911
vn 0.6375036 0.4257496 0.3682248
vn 0.1694627 0.8998726 0.2940869
vn 0.1694627 0.8998726 0.2940869
vn -0.0002304837 0.4238359 0.7391828
vn -0.0002304837 0.9238359 0.2562199
vn 0.3685785 0.4249045 0.6388233
vn -0.0002304837 0.4238359 0.7391828
vn 0.1694627 0.8998726 0.2940869
vn -0.1290465 0.9228265 0.2231443
vn -0.0002304837 0.4238359 0.7391828
vn -0.3705279 0.4228266 0.6414024
vn -0.0002304837 0.9238359 0.2562199
vn -0.0002304837 0.4238359 0.7391828
vn -0.1290465 0.9228265 0.2231443
vn -0.1290465 0.9228265 0.2231443
vn -0.3705279 0.4228266 0.6414024
vn -0.2241679 0.9221566 0.1293207
vn -0.2241679 0.9221566 0.1293207
vn -0.3705279 0.4228266 0.6414024
vn -0.642426 0.4221565 0.3708022
vn 0.1684022 0.9507717 2.085914E-05
vn -0.2241679 0.9221566 0.1293207
vn 0.1459291 0.9506857 -0.08431811
vn 0.1459291 0.9506857 -0.08431811
vn -0.2241679 0.9221566 0.1293207
vn -0.2590057 0.9220185 3.258511E-05
vn 0.1459291 0.9506857 -0.08431811
vn 0.7355662 0.4261576 3.131106E-05
vn 0.1684022 0.9507717 2.085914E-05
vn 0.6371518 0.4260286 -0.3679586
vn 0.7355662 0.4261576 3.131106E-05
vn 0.1459291 0.9506857 -0.08431811
vn -0.0003055582 0.8992147 -0.3404404
vn 0.1459291 0.9506857 -0.08431811
vn -0.1286847 0.9233333 -0.2224551
vn 0.1689915 0.9005252 -0.2931838
vn 0.1459291 0.9506857 -0.08431811
vn -0.0003055582 0.8992147 -0.3404404
vn 0.1689915 0.9005252 -0.2931838
vn 0.368225 0.4253939 -0.638146
vn 0.1459291 0.9506857 -0.08431811
vn 0.368225 0.4253939 -0.638146
vn 0.6371518 0.4260286 -0.3679586
vn 0.1459291 0.9506857 -0.08431811
vn -0.2241679 0.9221566 0.1293207
vn -0.7419686 0.4220185 3.259256E-05
vn -0.2590057 0.9220185 3.258511E-05
vn -0.2241679 0.9221566 0.1293207
vn -0.642426 0.4221565 0.3708022
vn -0.7419686 0.4220185 3.259256E-05
vn -0.2590057 0.9220185 3.258511E-05
vn -0.7419686 0.4220185 3.259256E-05
vn -0.2238044 0.9224529 -0.1290462
vn -0.2238044 0.9224529 -0.1290462
vn -0.7419686 0.4220185 3.259256E-05
vn -0.6420625 0.4224529 -0.3705277
vn -0.2238044 0.9224529 -0.1290462
vn -0.3701662 0.4233333 -0.6407133
vn -0.1286847 0.9233333 -0.2224551
vn -0.2238044 0.9224529 -0.1290462
vn -0.6420625 0.4224529 -0.3705277
vn -0.3701662 0.4233333 -0.6407133
vn -0.1286847 0.9233333 -0.2224551
vn -0.0002291799 0.4244109 -0.7382932
vn -0.0003055582 0.8992147 -0.3404404
vn -0.1286847 0.9233333 -0.2224551
vn -0.3701662 0.4233333 -0.6407133
vn -0.0002291799 0.4244109 -0.7382932
vn -0.0002291799 0.4244109 -0.7382932
vn 0.368225 0.4253939 -0.638146
vn 0.1689915 0.9005252 -0.2931838
vn -0.0003055582 0.8992147 -0.3404404
vn -0.0002291799 0.4244109 -0.7382932
vn 0.1689915 0.9005252 -0.2931838

vt 0 0
vt 0 0
vt 0 0
vt 0 0
vt 0 0
vt 0 0
vt 0 0
vt 0 0
vt 0 0
vt 0 0
vt 0 0
vt 0 0
vt 0 0
vt 0 0
vt 0 0
vt 0 0
vt 0 0
vt 0 0
vt 0 0
vt 0 0
vt 0 0
vt 0 0
vt 0 0
vt 0 0
vt 0 0
vt 0 0
vt 0 0
vt 0 0
vt 0 0
vt 0 0
vt 0 0
vt 0 0
vt 0 0
vt 0 0
vt 0 0
vt 0 0
vt 0 0
vt 0 0
vt 0 0
vt 0 0
vt 0 0
vt 0 0
vt 0 0
vt 0 0
vt 0 0
vt 0 0
vt 0 0
vt 0 0
vt 0 0
vt 0 0
vt 0 0
vt 0 0
vt 0 0
vt 0 0
vt 0 0
vt 0 0
vt 0 0
vt 0 0
vt 0 0
vt 0 0
vt 0 0
vt 0 0
vt 0 0
vt 0 0
vt 0 0
vt 0 0
vt 0 0
vt 0 0
vt 0 0
vt 0 0
vt 0 0
vt 0 0
vt 0 0
vt 0 0
vt 0 0
vt 0 0
vt 0 0
vt 0 0
vt 0 0
vt 0 0
vt 0 0
vt 0 0
vt 0 0
vt 0 0
vt 0 0
vt 0 0
vt 0 0
vt 0 0
vt 0 0
vt 0 0
vt 0 0
vt 0 0
vt 0 0
vt 0 0
vt 0 0
vt 0 0
vt 0 0
vt 0 0
vt 0 0
vt 0 0
vt 0 0
vt 0 0
vt 0 0
vt 0 0
vt 0 0
vt 0 0
vt 0 0
vt 0 0
vt 0 0
vt 0 0
vt 0 0
vt 0 0
vt 0 0
vt 0 0
vt 0 0
vt 0 0
vt 0 0
vt 0 0
vt 0 0
vt 0 0
vt 0 0
vt 0 0
vt 0 0
vt 0 0
vt 0 0
vt 0 0
vt 0 0
vt 0 0
vt 0 0
vt 0 0
vt 0 0
vt 0 0
vt 0 0
vt 0 0
vt 0 0
vt 0 0
vt 0 0
vt 0 0
vt 0 0
vt 0 0
vt 0 0
vt 0 0
vt 0 0
vt 0 0
vt 0 0
vt 0 0
vt 0 0
vt 0 0
vt 0 0
vt 0 0
vt 0 0
vt 0 0
vt 0 0
vt 0 0
vt 0 0
vt 0 0
vt 0 0
vt 0 0
vt 0 0
vt 0 0
vt 0 0
vt 0 0
vt 0 0
vt 0 0
vt 0 0
vt 0 0
vt 0 0
vt 0 0
vt 0 0
vt 0 0
vt 0 0
vt 0 0
vt 0 0
vt 0 0
vt 0 0
vt 0 0
vt 0 0
vt 0 0
vt 0 0
vt 0 0
vt 0 0
vt 0 0
vt 0 0
vt 0 0
vt 0 0
vt 0 0
vt 0 0
vt 0 0
vt 0 0
vt 0 0
vt 0 0
vt 0 0
vt 0 0
vt 0 0
vt 0 0
vt 0 0
vt 0 0
vt 0 0
vt 0 0
vt 0 0
vt 0 0
vt 0 0
vt 0 0
vt 0 0

g Polygonal_Geometry
usemtl Collider
f 3/3/3 2/2/2 1/1/1
f 6/6/6 5/5/5 4/4/4
f 9/9/9 8/8/8 7/7/7
f 12/12/12 11/11/11 10/10/10
f 15/15/15 14/14/14 13/13/13
f 18/18/18 17/17/17 16/16/16
f 21/21/21 20/20/20 19/19/19
f 24/24/24 23/23/23 22/22/22
f 27/27/27 26/26/26 25/25/25
f 30/30/30 29/29/29 28/28/28
f 33/33/33 32/32/32 31/31/31
f 36/36/36 35/35/35 34/34/34
f 39/39/39 38/38/38 37/37/37
f 42/42/42 41/41/41 40/40/40
f 45/45/45 44/44/44 43/43/43
f 48/48/48 47/47/47 46/46/46
f 51/51/51 50/50/50 49/49/49
f 54/54/54 53/53/53 52/52/52
f 57/57/57 56/56/56 55/55/55
f 60/60/60 59/59/59 58/58/58
f 63/63/63 62/62/62 61/61/61
f 66/66/66 65/65/65 64/64/64
f 69/69/69 68/68/68 67/67/67
f 72/72/72 71/71/71 70/70/70
f 75/75/75 74/74/74 73/73/73
f 78/78/78 77/77/77 76/76/76
f 81/81/81 80/80/80 79/79/79
f 84/84/84 83/83/83 82/82/82
f 87/87/87 86/86/86 85/85/85
f 90/90/90 89/89/89 88/88/88
f 93/93/93 92/92/92 91/91/91
f 96/96/96 95/95/95 94/94/94
f 99/99/99 98/98/98 97/97/97
f 102/102/102 101/101/101 100/100/100
f 105/105/105 104/104/104 103/103/103
f 108/108/108 107/107/107 106/106/106
f 111/111/111 110/110/110 109/109/109
f 114/114/114 113/113/113 112/112/112
f 117/117/117 116/116/116 115/115/115
f 120/120/120 119/119/119 118/118/118
f 123/123/123 122/122/122 121/121/121
f 126/126/126 125/125/125 124/124/124
f 129/129/129 128/128/128 127/127/127
f 132/132/132 131/131/131 130/130/130
f 135/135/135 134/134/134 133/133/133
f 138/138/138 137/137/137 136/136/136
f 141/141/141 140/140/140 139/139/139
f 144/144/144 143/143/143 142/142/142
f 147/147/147 146/146/146 145/145/145
f 150/150/150 149/149/149 148/148/148
f 153/153/153 152/152/152 151/151/151
f 156/156/156 155/155/155 154/154/154
f 159/159/159 158/158/158 157/157/157
f 162/162/162 161/161/161 160/160/160
f 165/165/165 164/164/164 163/163/163
f 168/168/168 167/167/167 166/166/166
f 171/171/171 170/170/170 169/169/169
f 174/174/174 173/173/173 172/172/172
f 177/177/177 176/176/176 175/175/175
f 180/180/180 179/179/179 178/178/178
f 183/183/183 182/182/182 181/181/181
f 186/186/186 185/185/185 184/184/184
f 189/189/189 188/188/188 187/187/187
f 192/192/192 191/191/191 190/190/190
f 195/195/195 194/194/194 193/193/193
f 198/198/198 197/197/197 196/196/196
f 201/201/201 200/200/200 199/199/199
f 204/204/204 203/203/203 202/202/202

